<svg width="100%" height="100%" viewBox="0 0 800 200" version="1.1" xmlns="http://www.w3.org/2000/svg" xmlns:xlink="http://www.w3.org/1999/xlink" xml:space="preserve" xmlns:serif="http://www.serif.com/" style="fill-rule:evenodd;clip-rule:evenodd;stroke-linejoin:round;stroke-miterlimit:2;">
    <g transform="matrix(0.757518,0,0,0.757518,-37.100663,-21.691786)">
        <g transform="matrix(0.25,0,0,0.25,9,-14)">
            <path d="M358.704,525.818C358.704,525.818 374.305,483.811 376.552,480.646C382.285,472.571 391.318,466.159 399.985,460.653C408.941,454.963 418.701,447.914 430.289,446.506C448.236,444.326 467.867,445.96 486,445.979L595.575,446.053C726.219,446.053 859.54,447.428 989.965,445.949C968.363,466.214 947.526,486.947 926.287,507.571C906.764,526.529 886.74,544.943 867.293,563.993C778.602,564.667 689.907,564.804 601.215,564.402L532.579,564.66C521.342,564.682 485.56,562.683 477.918,569.511C470.961,575.725 466.809,598.263 461.359,607.641C459.626,614.017 448.55,635.176 459.478,635.995C483.873,637.823 509.02,636.916 533.588,636.912L708.647,636.843C724.621,636.801 754.996,634.754 768.868,637.499C774.03,638.52 778.374,641.922 782.271,645.293C792.927,654.511 817.712,678.669 818.303,693.268C818.72,703.559 753.027,862.756 744.639,880.194C742.634,884.362 740.394,887.903 737.132,891.22C728.223,900.28 701.904,921.257 690.203,923.993C673.574,927.882 654.054,925.769 636.994,925.75L557.127,925.784L209.781,926.163L279.767,853.275C291.12,841.544 303.723,827.997 315.627,817.12C414.91,815.838 514.547,818.025 613.863,816.931C620.865,816.854 630.06,816.823 636.591,814.313C646.547,803.899 657.208,765.698 663.361,751.609C665.575,746.54 654.746,744.802 651.379,744.767C629.233,744.537 607.047,744.936 584.874,744.941L434.754,744.957C410.619,744.961 376.818,745.956 353.363,744.514C345.012,737.598 305.046,697.171 303.98,691.945C300.175,673.284 342.354,571.588 342.354,571.588L358.704,525.818Z" style="fill:url(#_Linear1);fill-rule:nonzero;"/>
        </g>
        <g transform="matrix(0.25,0,0,0.25,9,-14)">
            <path d="M486,445.979L595.575,446.053C726.219,446.053 859.54,447.428 989.965,445.949C938.764,493.981 877.022,554.462 867.293,563.993C778.602,564.667 689.907,564.804 601.215,564.402L532.579,564.66C532.579,564.66 484.44,564.754 477.918,569.511C475.58,571.216 473.162,576.772 473.162,576.772L461.359,607.641L452.169,634.171C452.169,634.171 460.918,638.3 524.202,639.113C589.813,639.688 655.428,639.754 721.04,639.311C767.619,639.233 768.209,637.455 772.361,640.544C798.031,659.642 809.318,676.792 815.271,689.271C819.163,697.429 808.079,715.417 808.079,715.417C808.079,715.417 763.14,691.954 749.122,689.271C722.446,684.165 315.109,652.59 315.109,652.59C315.109,652.59 376.053,489.305 380.552,480.646C383.246,475.461 404.229,455.577 417.987,452.39C424.086,450.977 429.868,449.842 435.295,448.933C466.55,443.701 486,445.979 486,445.979" style="fill:rgb(244,245,245);fill-rule:nonzero;"/>
        </g>
        <g transform="matrix(0.25,0,0,0.25,9,-14)">
            <path d="M845.714,620.021L984.08,619.274C1005.28,652.199 1028.32,683.597 1050.04,716.136C1057.21,726.891 1067.27,739.824 1073.8,750.526C1107.43,726.428 1150.01,701.152 1185.33,678.76C1203.62,667.173 1233.84,646.825 1251.75,636.744C1291.19,639.206 1331.98,636.775 1371.98,637.793C1366.01,651.151 1356.31,675.749 1349.07,686.981C1341.75,691.241 1308.31,705.392 1299.7,710.473C1234.01,749.236 1171.48,794.267 1106.22,833.501C1102.64,836.646 1085.48,847.336 1080.73,850.33C1063.94,860.91 1048.03,871.193 1031.69,882.475C1020.14,866.846 1008.29,848.944 997.108,832.845L905.614,703.821L868.942,652.358C862.035,642.6 853.11,629.02 845.714,620.021Z" style="fill:url(#_Linear2);fill-rule:nonzero;"/>
        </g>
        <g transform="matrix(0.25,0,0,0.25,9,-14)">
            <path d="M997.108,832.845C997.108,832.845 1105.68,832.259 1106.22,833.501C1102.64,836.646 1085.48,847.336 1080.73,850.33C1063.94,860.91 1048.03,871.193 1031.69,882.475C1020.14,866.846 997.108,832.845 997.108,832.845Z" style="fill:rgb(79,173,6);fill-rule:nonzero;"/>
        </g>
        <g transform="matrix(0.25,0,0,0.25,9,-14)">
            <path d="M1318.98,709.332C1328.72,700.259 1339.14,696.467 1349.61,689.191C1345.6,698.4 1342.11,707.448 1338.48,716.808C1326.5,748.366 1308.13,796.013 1293.51,825.811C1291.54,830.851 1285.18,847.66 1282.51,851.313C1277.81,863.859 1248.6,939.555 1241.51,948.138C1225.96,966.973 1171.08,996.289 1150.03,1013.2C1136.69,1022.91 1116.12,1033.19 1105.88,1042.38C1130.05,986.28 1153.89,930.036 1177.39,873.652C1181.56,861.836 1198.99,818.403 1204.56,807.925C1206.94,801.224 1212.95,784.659 1217.33,779.904C1228.74,767.511 1251.4,756.713 1265.69,747.168C1284.4,734.671 1302.18,724.288 1318.98,709.332Z" style="fill:url(#_Linear3);fill-rule:nonzero;"/>
        </g>
        <g transform="matrix(0.25,0,0,0.25,9,-14)">
            <path d="M1280.501,856.509C1273.112,875.554 1247.557,940.818 1241.51,948.138C1225.96,966.973 1171.08,996.289 1150.03,1013.2C1136.69,1022.91 1116.12,1033.19 1105.88,1042.38C1130.05,986.28 1153.89,930.036 1177.39,873.652L1178.87,879.281C1176.7,883.892 1169.32,902.541 1167.97,906.61C1162.42,923.384 1116.49,1021.69 1119.09,1028.82C1119.87,1028.78 1120.07,1028.82 1120.91,1028.53C1129.09,1025.65 1138.33,1016.4 1145.63,1011.46C1160.01,1001.71 1232.85,955.442 1239.53,945.705C1246.92,934.93 1255.28,906.587 1255.28,906.587L1281.537,853.288L1293.56,815.899L1206.15,808.225L1204.56,807.925C1206.94,801.224 1212.95,784.659 1217.33,779.904C1228.74,767.511 1302.18,724.288 1318.98,709.332C1328.72,700.259 1339.14,696.467 1349.61,689.191C1345.6,698.4 1342.11,707.448 1338.48,716.808C1326.5,748.366 1280.501,856.509 1280.501,856.509Z" style="fill:url(#_Linear4);"/>
        </g>
        <g transform="matrix(0.25,0,0,0.25,9,-14)">
            <path d="M1318.98,709.332C1328.72,700.259 1339.14,696.467 1349.61,689.191C1345.6,698.4 1342.11,707.448 1338.48,716.808C1326.83,708.943 1325.63,718.898 1318.98,709.332Z" style="fill:rgb(177,233,70);fill-rule:nonzero;"/>
        </g>
        <g transform="matrix(0.25,0,0,0.313437,8,-65.252082)">
            <path d="M1181.84,858.664L1210.15,807.925L1301.56,807.925L1269.89,870.98L1181.84,858.664Z" style="fill:rgb(79,173,6);fill-rule:nonzero;"/>
        </g>
        <g transform="matrix(0.25,0,0,0.25,9,-14)">
            <path d="M873.061,683.509C881.039,698.554 897.861,719.281 908.452,733.633C917.22,745.515 928.826,762.881 937.822,773.923C932.562,786.662 927.32,799.771 921.592,812.274C920.143,817.505 910.125,843.613 907.397,848.152C899.557,870.864 888.158,893.389 880.499,916.215C879.408,919.552 878.346,922.898 877.314,926.253C855.301,926.374 833.288,926.372 811.276,926.248C800.082,926.209 783.934,926.589 773.115,925.598L772.586,924.619C782.654,898.884 794.68,871.639 805.426,846.008C812.896,825.254 825.53,797.205 834.396,776.309C846.893,745.214 859.783,714.278 873.061,683.509Z" style="fill:url(#_Linear5);fill-rule:nonzero;"/>
        </g>
        <g transform="matrix(0.25,0,0,0.25,9,-14)">
            <path d="M873.061,683.509C881.039,698.554 897.861,719.281 908.452,733.633C917.22,745.515 928.826,762.881 937.822,773.923C932.562,786.662 927.32,799.771 921.592,812.274C919.734,806.112 924.591,805.427 924.568,799.007C919.984,794.567 845.011,784.166 835.48,779.5L834.396,776.309C846.893,745.214 859.783,714.278 873.061,683.509Z" style="fill:url(#_Linear6);fill-rule:nonzero;"/>
        </g>
        <g transform="matrix(0.25,0,0,0.25,9,-14)">
            <path d="M805.426,846.008C805.97,857.236 783.714,912.991 777.002,924.448L772.586,924.619C782.654,898.884 794.68,871.639 805.426,846.008Z" style="fill:rgb(118,206,31);fill-rule:nonzero;"/>
        </g>
        <g transform="matrix(0.25,0,0,0.25,9,-14)">
            <path d="M880.499,916.215L878.537,915.653C878.272,903.078 891.847,875.831 897.268,863.552C899.527,858.435 903.681,853.302 906.112,847.696L907.397,848.152C899.557,870.864 888.158,893.389 880.499,916.215Z" style="fill:rgb(79,173,6);fill-rule:nonzero;"/>
        </g>
        <g transform="matrix(0.25,0,0,0.25,9,-14)">
            <path d="M1076.06,1095.15C1095.89,1086.6 1115.51,1077.57 1134.9,1068.07C1138.47,1066.32 1146.69,1060.41 1149.35,1061.27C1154.86,1071.72 1157.62,1078.64 1163.89,1089.12C1150.9,1095.13 1138.41,1102.18 1125.33,1108.18C1063.96,1136.31 996.336,1148.89 928.883,1149.33L929.052,1119.94C979.639,1119.99 1023.24,1111.45 1071.19,1096.31L1076.06,1095.15Z" style="fill:rgb(12,51,6);fill-rule:nonzero;"/>
        </g>
        <g transform="matrix(0.25,0,0,0.25,9,-14)">
            <path d="M1071.19,1096.31L1076.06,1095.15C1078.64,1100.43 1086.84,1113.66 1085.91,1118.42C1078.08,1114.75 1074.63,1103.26 1071.19,1096.31Z" style="fill:rgb(11,33,10);fill-rule:nonzero;"/>
        </g>
        <g transform="matrix(0.25,0,0,0.25,9,-14)">
            <path d="M1375.19,496.809C1379.43,498.199 1403.21,515.927 1410.97,520.372C1411.99,532.718 1412.09,547.013 1412.45,559.534C1403.32,563.958 1385.37,575.511 1375.53,581.075C1374.97,581.084 1374.24,581.136 1373.73,580.927C1330.8,563.596 1335.68,552.412 1341.88,513.438C1350.93,508.079 1365.35,501.572 1375.19,496.809Z" style="fill:rgb(244,245,245);fill-rule:nonzero;"/>
        </g>
        <g transform="matrix(0.25,0,0,0.25,9,-14)">
            <path d="M606.934,357.574C700.438,261.834 828.38,207.515 962.203,206.741C1010.46,206.36 1058.64,212.597 1104.85,226.098C1113.23,228.544 1127.44,231.261 1134.17,236.285L1135.06,237.984C1132.79,241.778 1128.04,241.552 1124.16,240.258C945.289,180.638 742.983,229.724 608.329,361.614L606.934,357.574Z" style="fill:rgb(177,233,70);fill-rule:nonzero;"/>
        </g>
        <g transform="matrix(0.25,0,0,0.25,9,-14)">
            <path d="M934.793,257.418C941.059,256.731 952.24,256.763 958.892,256.571L958.856,288.064C932.77,288.4 896.958,294.293 871.5,299.094L861.123,301.629C861.123,301.629 853.958,282.025 846.643,272.938C876.571,263.692 903.743,259.984 934.793,257.418Z" style="fill:rgb(118,206,31);fill-rule:nonzero;"/>
        </g>
        <g transform="matrix(0.25,0,0,0.25,9,-14)">
            <path d="M1360.57,435.237C1367.35,437.983 1379.63,447.109 1384.12,453.205C1380.05,464.16 1376.62,476.635 1373.47,487.924C1361.84,492.835 1348.46,499.996 1336.36,505.457C1327.44,496.866 1322.71,492.688 1312.78,485.657C1317.69,450.76 1328.72,444.331 1360.57,435.237Z" style="fill:rgb(244,245,245);fill-rule:nonzero;"/>
        </g>
        <g transform="matrix(0.25,0,0,0.25,9,-14)">
            <path d="M1448,496.71C1456.02,497.555 1465.54,505.423 1470.84,511.234C1471.18,531.839 1476.29,548.326 1458.35,563.46C1454.9,566.373 1450.84,571.994 1446.58,573.325C1438.89,568.05 1429.21,565.617 1420.59,559.589C1420.11,549.492 1420.57,527.467 1422.3,517.95C1427.42,512.874 1441.53,502.136 1448,496.71Z" style="fill:rgb(244,245,245);fill-rule:nonzero;"/>
        </g>
        <g transform="matrix(0.25,0,0,0.25,9,-14)">
            <path d="M751.04,309.973L752.063,310.129C756.4,312.815 764.095,333.957 766.44,339.736C750.601,347.772 735.442,357.084 721.113,367.577C715.597,371.597 702.278,382.739 697.218,385.224C691.03,377.623 684.188,366.201 678.057,357.73C703.636,337.432 722.307,325.076 751.04,309.973Z" style="fill:rgb(118,206,31);fill-rule:nonzero;"/>
        </g>
        <g transform="matrix(0.25,0,0,0.25,9,-14)">
            <path d="M841.893,274.224L844.315,274.308C845.625,275.863 849.972,299.014 851.713,304.222C831.489,311.669 810.758,317.811 791.079,326.661C786.392,328.769 781.98,331.613 776.994,332.951L775.591,331.639C771.603,323.287 766.035,312.796 760.675,305.313C788.357,291.669 812.106,281.893 841.893,274.224Z" style="fill:rgb(118,206,31);fill-rule:nonzero;"/>
        </g>
        <g transform="matrix(0.25,0,0,0.25,9,-14)">
            <path d="M938.31,321.572C950.051,320.117 963.907,320.731 976.018,320.705C1062.51,320.518 1151.48,353.585 1217.05,409.732C1220.76,412.908 1228.02,419.142 1229.84,423.371C1228.93,423.695 1229.56,423.541 1227.91,423.394L1227.18,422.507C1191.4,379.425 1115.19,349.121 1061.53,336.44C1052.45,334.294 1039.14,330.749 1029.95,330.159C1015.96,327.734 994.716,326.613 980.603,326.391C914.679,324.783 849.367,339.372 790.394,368.88C777.095,375.533 764.111,382.796 751.482,390.646C743.982,395.211 733.108,402.562 725.506,405.896L725.407,405.201C776.573,358.145 869.664,326.927 938.31,321.572Z" style="fill:rgb(52,82,36);fill-rule:nonzero;"/>
        </g>
        <g transform="matrix(0.25,0,0,0.25,9,-14)">
            <path d="M660.459,977.023C775.304,1076.35 909.699,1112.56 1055.79,1066.2C1060.05,1064.84 1071.69,1059.57 1074.91,1061.59C1072.87,1065.52 1061.15,1069.13 1056.81,1070.57C952.859,1105.17 843.84,1096.29 747.22,1044.38C715.017,1027.07 683.439,1005.13 657.783,978.363L660.459,977.023Z" style="fill:url(#_Linear7);fill-rule:nonzero;"/>
        </g>
        <g transform="matrix(0.25,0,0,0.25,9,-14)">
            <path d="M1304.01,553.845C1314.03,555.854 1320.88,557.246 1331.09,558.088C1343.89,577.035 1352.21,580.124 1371.73,590.428C1375.47,597.189 1377.58,603.289 1379.33,610.751C1365.67,610.83 1348.51,611.469 1335.24,609.146C1313.84,592.271 1308.71,578.803 1304.01,553.845Z" style="fill:url(#_Linear8);fill-rule:nonzero;"/>
        </g>
        <g transform="matrix(0.25,0,0,0.25,9,-14)">
            <path d="M1317.93,893.866C1328.28,898.018 1334.41,901.425 1344.21,906.596C1336.25,928.472 1323.55,943.926 1309.31,961.893C1308.61,963.106 1306.01,966.189 1304.99,967.449C1291.81,960.7 1289.31,957.466 1284.31,944.325C1285.88,941.577 1288.01,938.558 1289.78,935.889C1300.18,921.151 1310.26,910.308 1317.93,893.866Z" style="fill:rgb(12,51,6);fill-rule:nonzero;"/>
        </g>
        <g transform="matrix(0.25,0,0,0.25,9,-14)">
            <path d="M1284.31,944.325C1285.88,941.577 1288.01,938.558 1289.78,935.889C1294.47,947.574 1302.83,952.747 1309.31,961.893C1308.61,963.106 1306.01,966.189 1304.99,967.449C1291.81,960.7 1289.31,957.466 1284.31,944.325Z" style="fill:rgb(11,33,10);fill-rule:nonzero;"/>
        </g>
        <g transform="matrix(0.25,0,0,0.25,9,-14)">
            <path d="M1311.13,918.923C1315.14,918.973 1323.47,924.512 1326.09,927.579C1326.99,928.619 1325.94,931.243 1325.62,932.682C1321.88,932.305 1312.14,922.517 1311.13,918.923Z" style="fill:rgb(11,33,10);fill-rule:nonzero;"/>
        </g>
        <g transform="matrix(0.25,0,0,0.25,9,-14)">
            <path d="M1277.49,951.62C1281.16,953.404 1295.51,969.68 1299.68,973.958C1283.97,995.968 1275.78,1003.48 1255.61,1020.28C1252.49,1022.34 1253.96,1022.24 1251.19,1021.82C1244.88,1015.5 1241.19,1009.75 1236.13,1002.39C1240.82,996.156 1246.68,990.347 1251.53,984.175C1260.18,973.163 1268.15,962.106 1277.49,951.62Z" style="fill:rgb(12,51,6);fill-rule:nonzero;"/>
        </g>
        <g transform="matrix(0.25,0,0,0.25,9,-14)">
            <path d="M707.214,1144.6C715.904,1144.09 732.885,1153.03 743.973,1157.58C776.113,1170.77 811.707,1180.56 845.588,1187.65C856.243,1189.88 907.584,1193.31 911.107,1195.32C912.849,1198.27 912.561,1199.61 912.679,1203.19C874.624,1200.63 837.985,1195.68 800.943,1186.21C786.829,1182.6 711.02,1158.58 706.572,1149.57C705.786,1147.98 706.752,1146.25 707.214,1144.6Z" style="fill:rgb(118,206,31);fill-rule:nonzero;"/>
        </g>
        <g transform="matrix(0.25,0,0,0.25,9,-14)">
            <path d="M1218.85,1011.61L1220.01,1012.27C1222.2,1016.61 1213.26,1036.06 1213.26,1036.06C1213.26,1036.06 1213.15,1047.71 1214.61,1055.05C1209.84,1057.62 1202.5,1064 1197.81,1067.62C1190.54,1073.23 1184.75,1076.97 1176.89,1081.76C1174.93,1079.23 1172.73,1075.95 1170.84,1073.29C1167.31,1066.87 1164.11,1058.66 1160.02,1053.04C1180.99,1039.51 1201.62,1029.8 1218.85,1011.61Z" style="fill:rgb(12,51,6);fill-rule:nonzero;"/>
        </g>
        <g transform="matrix(0.25,0,0,0.25,9,-14)">
            <path d="M1181.13,1135.1L1182.69,1135.7L1181.95,1137.38C1166.81,1147.52 1155.55,1151.99 1138.95,1159.08C1070.16,1187.83 996.414,1202.84 921.861,1203.27L920.72,1202.92C919.143,1200.44 919.422,1201.76 919.899,1198.82C920.713,1197.72 923.032,1194.85 924.535,1194.88C993.026,1196.24 1060.44,1184.1 1124.43,1159.46C1143.25,1152.21 1161.41,1141.59 1181.13,1135.1Z" style="fill:rgb(58,116,30);fill-rule:nonzero;"/>
        </g>
        <g transform="matrix(0.25,0,0,0.25,9,-14)">
            <path d="M498.304,970.09L512.943,972.537C526.287,990.451 540.059,1010.01 554.831,1026.55C560.719,1033.18 566.842,1039.6 573.187,1045.79C581.849,1054.16 594.125,1064.89 602.253,1074.18C603.047,1075.09 601.636,1077.57 601.016,1079.2C600.687,1079.41 600.359,1079.62 600.031,1079.84C597.881,1080.52 597.998,1081.38 595.749,1080.2C574.462,1069.05 504.543,988.305 498.304,970.09Z" style="fill:rgb(58,116,30);fill-rule:nonzero;"/>
        </g>
        <g transform="matrix(0.25,0,0,0.25,9,-14)">
            <path d="M1253.04,589.271C1253.04,589.271 1246.87,586.449 1240.02,584.344L1256.29,561.852L1221.37,573.191L1194.09,584.344C1207.33,574.623 1245.47,548.555 1254.41,534.843C1256,556.517 1264.45,570.198 1276.67,587.871C1283.07,597.125 1291.11,602.051 1298.29,609.854C1282.73,609.906 1267.34,610.666 1267.34,610.666L1272.44,594.042L1259.88,598.787C1259.88,598.787 1242.11,606.841 1233.14,610.666L1232.4,608.501C1234.84,605.225 1253.04,589.271 1253.04,589.271Z" style="fill:rgb(244,245,245);"/>
        </g>
        <g transform="matrix(0.25,0,0,0.25,9,-14)">
            <path d="M1380.21,415.71C1386.02,415.757 1391.83,416.075 1397.61,416.662C1415.53,418.379 1422.56,422.898 1433.58,436.349C1431.1,442.868 1430.06,447.202 1423.25,449.169C1413.14,449.312 1403.79,448.984 1393.7,448.608C1385.51,443.579 1375.43,436.135 1367.16,430.564C1373.58,425.516 1376.38,422.831 1380.21,415.71Z" style="fill:rgb(244,245,245);fill-rule:nonzero;"/>
        </g>
        <g transform="matrix(0.25,0,0,0.25,9,-14)">
            <path d="M1345.26,837.341C1354.38,840.764 1364.58,843.431 1374.05,845.756C1366.28,866.417 1363.98,872.855 1353.15,892.496L1351.44,894.132C1345.16,894.797 1332.95,884.806 1328.23,881.027C1331.57,866.57 1339.39,851.37 1345.26,837.341Z" style="fill:rgb(12,51,6);fill-rule:nonzero;"/>
        </g>
        <g transform="matrix(0.25,0,0,0.25,9,-14)">
            <path d="M1311.06,348.136L1308.56,348.118C1297.38,342.073 1291.65,331.886 1281.71,324.926C1276.31,321.138 1267.82,318.796 1264.08,313.291C1256.77,302.536 1210.66,279.273 1197.8,272.419C1193.71,270.242 1187.75,267.696 1186.36,263.112L1187.6,260.832C1189.01,259.896 1191.2,258.424 1192.88,258.8C1197.18,259.763 1204.67,264.492 1208.52,266.364C1231.54,277.555 1302.81,324.72 1315.47,343.117C1313.7,344.947 1312.47,346.004 1311.06,348.136Z" style="fill:rgb(177,233,70);fill-rule:nonzero;"/>
        </g>
        <g transform="matrix(0.25,0,0,0.25,9,-14)">
            <path d="M1411.53,891.148L1414.54,893.242C1385.89,968.32 1316.55,1050.84 1250.25,1095.91L1247.11,1093.48C1323.75,1039.94 1368.83,971.922 1411.53,891.148Z" style="fill:url(#_Linear9);fill-rule:nonzero;"/>
        </g>
        <g transform="matrix(0.25,0,0,0.25,9,-14)">
            <path d="M671.017,362.81C671.017,362.81 688.352,383.999 692.208,389.659C688.307,393.302 684.378,397.301 680.567,401.067C672.009,401.444 660.995,401.162 652.25,401.157C643.254,401.071 637.253,401.015 628.214,401.98C640.527,389.538 671.017,362.81 671.017,362.81Z" style="fill:rgb(79,173,6);fill-rule:nonzero;"/>
        </g>
        <g transform="matrix(0.25,0,0,0.25,9,-14)">
            <path d="M1442.18,438.369C1463.58,450.525 1470.16,467.426 1479.13,489.279C1477.21,493.783 1476.11,496.6 1473.42,500.789C1466.38,496.02 1459.66,491.145 1451.92,487.591C1446.86,475.455 1440.62,464.07 1434.16,452.646C1436.74,447.898 1439.53,443.089 1442.18,438.369Z" style="fill:rgb(244,245,245);fill-rule:nonzero;"/>
        </g>
        <g transform="matrix(0.25,0,0,0.25,9,-14)">
            <path d="M1380.48,828.895C1374.33,827.984 1357.41,825.585 1356.69,818.365C1360.45,815.477 1359.52,817.63 1365.16,816.053C1366.56,812.152 1360.07,813.087 1360.6,810.483C1365.15,787.9 1372.15,764.868 1376.58,742.076C1377.39,737.934 1379.36,724.798 1380.17,723.523C1384.88,731.743 1379.85,752.311 1377.32,761.092L1377.06,762.889C1375.29,769.814 1369.78,781.588 1373.3,787.467C1378.14,791.406 1384.48,790.749 1390.83,790.919C1388.09,802.456 1384.19,817.96 1380.48,828.895Z" style="fill:rgb(11,33,10);fill-rule:nonzero;"/>
        </g>
        <g transform="matrix(0.25,0,0,0.25,9,-14)">
            <path d="M1322.17,434.817C1323.25,435.33 1322.63,434.92 1323.73,436.425C1320.8,445.034 1314.89,454.695 1311.43,463.135C1303.69,482.009 1301.46,497.593 1284.09,511.269L1283.08,510.621C1281.18,507.911 1281.76,503.99 1282.13,500.731C1285.47,471.497 1299.82,452.511 1322.17,434.817Z" style="fill:rgb(244,245,245);fill-rule:nonzero;"/>
        </g>
        <g transform="matrix(0.25,0,0,0.25,9,-14)">
            <path d="M1260.58,431.922L1263.85,434.631C1221.63,477.882 1177.4,519.126 1131.3,558.227L1128.64,555.833C1133.38,551.854 1138.38,547.285 1142.86,542.967C1181.55,505.734 1222.14,469.31 1260.58,431.922Z" style="fill:rgb(177,233,70);fill-rule:nonzero;"/>
        </g>
        <g transform="matrix(0.25,0,0,0.25,9,-14)">
            <path d="M640.742,1009.28C644.085,1010.14 655.796,1018.08 658.351,1020.6C668.8,1030.92 653.602,1042.26 646.803,1048.18C642.396,1046.15 627.711,1032.99 624.926,1028.41C622.046,1023.67 640.771,1018.77 640.428,1010.31C640.533,1009.97 640.638,1009.62 640.742,1009.28Z" style="fill:rgb(10,18,10);fill-rule:nonzero;"/>
        </g>
        <g transform="matrix(0.25,0,0,0.25,9,-14)">
            <path d="M664.129,1059.76C669.8,1051.71 672.739,1047.47 679.638,1040.3C685.404,1044.14 701.495,1051.1 703.55,1055.3C698.438,1061.48 691.682,1073.53 686.046,1076C683.457,1075.29 683.223,1074.64 681.356,1072.68C675.041,1069.55 668.618,1065.17 664.129,1059.76Z" style="fill:rgb(10,18,10);fill-rule:nonzero;"/>
        </g>
        <g transform="matrix(0.25,0,0,0.25,9,-14)">
            <path d="M681.356,1072.68C688.94,1066.46 694.039,1056.27 703.55,1055.3C698.438,1061.48 691.682,1073.53 686.046,1076C683.457,1075.29 683.223,1074.64 681.356,1072.68Z" style="fill:rgb(11,33,10);fill-rule:nonzero;"/>
        </g>
        <g transform="matrix(0.25,0,0,0.25,9,-14)">
            <path d="M611.049,1081.62C616.651,1084.44 640.369,1103.23 647.99,1108.42C660.33,1116.82 676.182,1125.24 687.64,1133.35C687.38,1136.27 687.066,1135.67 684.493,1138.41L683.297,1138.02C671.926,1134.22 611.07,1096.03 606.934,1087.59C607.584,1084.05 607.921,1084.74 611.049,1081.62Z" style="fill:rgb(79,173,6);fill-rule:nonzero;"/>
        </g>
        <g transform="matrix(0.25,0,0,0.25,9,-14)">
            <path d="M570.458,1105.28C580.501,1110.43 592.029,1119.41 601.013,1123.47L598.591,1126.01C594.291,1130.88 594.02,1131.67 593.489,1138.14C589.601,1138.47 584.132,1132.8 581.237,1130.29C575.359,1125.58 558.168,1112.68 554.733,1107.55C557.481,1107.89 559.123,1107.95 561.796,1108.73C563.919,1106.38 567.26,1106.05 570.458,1105.28Z" style="fill:rgb(11,33,10);fill-rule:nonzero;"/>
        </g>
        <g transform="matrix(0.25,0,0,0.25,9,-14)">
            <path d="M554.733,1107.55C557.481,1107.89 559.123,1107.95 561.796,1108.73C562.81,1110.33 581.49,1125.95 584.254,1127.97L581.237,1130.29C575.359,1125.58 558.168,1112.68 554.733,1107.55Z" style="fill:rgb(12,51,6);fill-rule:nonzero;"/>
        </g>
        <g transform="matrix(0.25,0,0,0.25,9,-14)">
            <path d="M584.254,1127.97C587.969,1129.06 590.208,1129.22 592.408,1132.19C593.1,1134.83 593.273,1135.33 593.489,1138.14C589.601,1138.47 584.132,1132.8 581.237,1130.29L584.254,1127.97Z" style="fill:rgb(12,51,6);fill-rule:nonzero;"/>
        </g>
        <g transform="matrix(0.25,0,0,0.25,9,-14)">
            <path d="M1478.69,549.658C1479.86,551.035 1480.2,550.842 1479.85,552.381C1475.47,571.637 1462.12,589.057 1447.59,600.675C1439.28,588.68 1470.66,558.944 1478.69,549.658Z" style="fill:rgb(244,245,245);fill-rule:nonzero;"/>
        </g>
        <g transform="matrix(0.25,0,0,0.25,9,-14)">
            <path d="M715.427,1063.51C729.327,1070.58 726.326,1084.41 717.447,1094.09C712.69,1090.32 709.112,1089.38 703.515,1087.9C707.305,1079.68 711.277,1071.55 715.427,1063.51Z" style="fill:rgb(10,18,10);fill-rule:nonzero;"/>
        </g>
        <g transform="matrix(0.25,0,0,0.25,9,-14)">
            <path d="M1281.22,521.598C1284.26,521.554 1285.23,521.333 1288.06,522.55C1289.16,524.665 1299.3,569.482 1300.07,574.415C1287.51,559.723 1280.8,540.921 1281.22,521.598Z" style="fill:rgb(244,245,245);fill-rule:nonzero;"/>
        </g>
        <g transform="matrix(0.25,0,0,0.25,9,-14)">
            <path d="M1411.53,891.148C1421.71,864.498 1432.34,838.912 1439.55,811.242C1440,809.503 1441.54,806.573 1443.11,805.515C1442.99,818.764 1429.23,857.747 1423.94,870.94C1422.05,875.644 1415.28,889.466 1414.54,893.242L1411.53,891.148Z" style="fill:rgb(52,82,36);fill-rule:nonzero;"/>
        </g>
        <g transform="matrix(0.25,0,0,0.25,9,-14)">
            <path d="M1315.47,343.117C1321.39,346.695 1337.98,363.055 1340.72,369.826L1340.65,372.17C1331.81,379.436 1315.02,354.231 1312.77,348.445L1311.06,348.136C1312.47,346.004 1313.7,344.947 1315.47,343.117Z" style="fill:rgb(52,82,36);fill-rule:nonzero;"/>
        </g>
        <g transform="matrix(0.25,0,0,0.25,9,-14)">
            <path d="M1009.3,259.819C1013.85,259.953 1015.12,259.212 1018.37,261.527C1021.6,268.848 1017.44,280.153 1015.55,288.441C1011.17,288.811 1012.48,289.263 1008.8,287.639C1005.16,282.454 1008.39,267.177 1009.3,259.819Z" style="fill:rgb(177,233,70);fill-rule:nonzero;"/>
        </g>
        <g transform="matrix(0.25,0,0,0.25,9,-14)">
            <path d="M463.43,997.007C469.347,1002.76 487.696,1023.06 486.577,1031.16L485.027,1031.86C475.65,1028.23 465.681,1009.08 460.378,1000.08L463.43,997.007Z" style="fill:rgb(58,116,30);fill-rule:nonzero;"/>
        </g>
        <g transform="matrix(0.25,0,0,0.25,9,-14)">
            <path d="M491.002,1035.81C493.45,1036.94 518.433,1066.43 522.86,1070.03C525.518,1072.19 526.056,1075.52 525.503,1078.92C513.789,1072.69 498.369,1050.51 489.853,1039.75C489.004,1038.68 490.402,1036.98 491.002,1035.81Z" style="fill:rgb(90,142,50);fill-rule:nonzero;"/>
        </g>
        <g transform="matrix(0.25,0,0,0.25,9,-14)">
            <path d="M439.98,970.312C445.418,970.939 450.849,971.623 456.272,972.365C457.864,980.964 460.33,988.831 463.43,997.007L460.378,1000.08C455.023,994.263 444.707,977.617 439.98,970.312Z" style="fill:rgb(52,82,36);fill-rule:nonzero;"/>
        </g>
        <g transform="matrix(0.25,0,0,0.25,9,-14)">
            <path d="M1184.64,1135.26C1193.44,1127.27 1210.24,1118.06 1220.76,1111.33C1229.66,1105.65 1238.53,1098.88 1247.11,1093.48L1250.25,1095.91C1249.6,1096.59 1238.4,1104.06 1237.11,1104.9C1219.29,1116.52 1204.64,1127.73 1184.64,1135.26Z" style="fill:rgb(52,82,36);fill-rule:nonzero;"/>
        </g>
        <g transform="matrix(0.25,0,0,0.25,9,-14)">
            <path d="M1198.13,324.516L1204.74,328.824L1195.43,350.338L1186.2,342.042C1190.91,336.054 1198.13,324.516 1198.13,324.516Z" style="fill:rgb(52,82,36);fill-rule:nonzero;"/>
        </g>
        <g transform="matrix(0.25,0,0,0.25,9,-14)">
            <path d="M983.205,257.663C985.776,257.545 987.478,257.126 989.572,258.506C992.498,264.338 989.284,279.487 988.573,286.958C987.553,286.964 985.684,286.705 984.594,286.592C980.296,281.551 982.692,265.27 983.205,257.663Z" style="fill:rgb(177,233,70);fill-rule:nonzero;"/>
        </g>
        <g transform="matrix(0.25,0,0,0.25,9,-14)">
            <path d="M1435.8,605.944C1438.09,606.276 1437.17,605.762 1438.65,607.533L1437.84,609.521C1430.16,616.438 1415.01,620.624 1405.22,623.043C1403.45,622.678 1404.26,623.097 1402.89,621.606C1405.04,617.551 1429.32,608.774 1435.8,605.944Z" style="fill:rgb(244,245,245);fill-rule:nonzero;"/>
        </g>
        <g transform="matrix(0.25,0,0,0.25,9,-14)">
            <path d="M1039.39,264.427C1042.28,264.525 1043.5,264.269 1045.84,265.961C1048.12,271.711 1043,284.707 1041.25,291.774C1038.36,292.781 1039.71,292.842 1037.08,291.996C1034.89,287.412 1038.35,270.252 1039.39,264.427Z" style="fill:rgb(177,233,70);fill-rule:nonzero;"/>
        </g>
        <g transform="matrix(0.25,0,0,0.25,9,-14)">
            <path d="M1092.86,276.362C1095.05,277.26 1095.35,277.846 1097,279.522C1099.25,285.67 1093.69,297.337 1091.22,303.645C1089.73,303.349 1088.75,302.979 1087.31,302.518C1085.25,297.118 1090.51,281.719 1092.86,276.362Z" style="fill:rgb(118,206,31);fill-rule:nonzero;"/>
        </g>
        <g transform="matrix(0.25,0,0,0.25,9,-14)">
            <path d="M1068.05,269.332C1068.98,269.593 1070.25,270.168 1071.19,270.549C1073.11,275.916 1068.54,293.8 1063.11,296.976L1060.12,295.693C1059.2,291.98 1065.74,273.767 1068.05,269.332Z" style="fill:rgb(177,233,70);fill-rule:nonzero;"/>
        </g>
        <g transform="matrix(0.25,0,0,0.25,9,-14)">
            <path d="M1144.43,296.086C1147.45,296.632 1147.99,296.525 1150.1,298.816C1151.36,304.971 1145.24,313.2 1141.84,318.988L1139.3,320.107L1137.82,319.429C1136.43,314.257 1142.23,301.614 1144.43,296.086Z" style="fill:rgb(118,206,31);fill-rule:nonzero;"/>
        </g>
        <g transform="matrix(0.25,0,0,0.25,9,-14)">
            <path d="M548.595,1101.7C543.097,1097.94 533.054,1090.02 532.447,1083.16L533.731,1081.91C541.312,1083.11 544.48,1087.97 549.81,1093.65L548.595,1101.7Z" style="fill:rgb(90,142,50);fill-rule:nonzero;"/>
        </g>
        <g transform="matrix(0.25,0,0,0.25,9,-14)">
            <path d="M815.922,1107.76C820.116,1109.33 824.576,1108.78 826.979,1112.17C823.43,1120.8 822.577,1121.16 823.615,1130.58L823.755,1131.78C821.01,1132.79 817.168,1131.91 815.289,1129.62C821.066,1124.04 817.552,1114.77 815.922,1107.76Z" style="fill:rgb(10,18,10);fill-rule:nonzero;"/>
        </g>
        <g transform="matrix(0.25,0,0,0.25,9,-14)">
            <path d="M757.782,1086.3C770.899,1088.14 757.909,1104.52 753.888,1110.17L751.881,1110.87L750.766,1109.81C751.42,1102.38 755.159,1093.47 757.782,1086.3Z" style="fill:rgb(10,18,10);fill-rule:nonzero;"/>
        </g>
        <g transform="matrix(0.25,0,0,0.25,9,-14)">
            <path d="M1222.46,337.618C1224.81,339.034 1224.61,339.009 1225.86,341.491C1226.19,350.138 1219.33,356.793 1213.73,363.003C1213.3,362.907 1212.3,362.23 1211.86,361.963C1210.79,356.248 1219.15,344.048 1222.46,337.618Z" style="fill:rgb(52,82,36);fill-rule:nonzero;"/>
        </g>
        <g transform="matrix(0.25,0,0,0.25,8,-14)">
            <path d="M1233.14,610.666L1207.01,626.967L1223.46,613.017L1231.93,601.297L1239.7,600.219C1239.7,600.219 1234.84,605.225 1232.4,608.501L1233.14,610.666Z" style="fill:white;fill-rule:nonzero;"/>
        </g>
        <g transform="matrix(0.25,0,0,0.25,9,-14)">
            <path d="M1171.73,309.277C1174.55,310.18 1178.99,315.505 1178.63,318.509C1174.94,319.893 1169.71,325.965 1170.43,329.757L1170.45,331.001L1169.08,332.071C1165.99,331.801 1165.99,331.439 1163.69,329.406C1163.12,327.089 1169.85,314.397 1171.73,309.277Z" style="fill:rgb(90,142,50);fill-rule:nonzero;"/>
        </g>
        <g transform="matrix(0.25,0,0,0.25,9,-14)">
            <path d="M631.481,1002.46C634.854,1004.51 634.5,1003.55 635.259,1006.4C631.847,1013.09 624.769,1017.45 618.658,1022.04L615.272,1020.48L614.722,1018.61C617.961,1012.92 626.56,1009.82 631.481,1002.46Z" style="fill:rgb(10,18,10);fill-rule:nonzero;"/>
        </g>
        <g transform="matrix(0.25,0,0,0.25,9,-14)">
            <path d="M549.81,1093.65C556.295,1096.97 556.675,1096.45 559.305,1103.01C565.284,1102.61 566.074,1101.92 570.458,1105.28C567.26,1106.05 563.919,1106.38 561.796,1108.73C559.123,1107.95 557.481,1107.89 554.733,1107.55C552.731,1105.46 550.73,1103.66 548.595,1101.7L549.81,1093.65Z" style="fill:rgb(12,51,6);fill-rule:nonzero;"/>
        </g>
        <g transform="matrix(0.25,0,0,0.25,11,-18)">
            <path d="M1199.27,607.627L1217.36,599.451C1217.36,599.451 1176.86,630.395 1167.55,635.825L1199.27,607.627Z" style="fill:white;fill-rule:nonzero;"/>
        </g>
        <g transform="matrix(0.25,0,0,0.25,9,-14)">
            <path d="M1097.17,583.89C1107.55,574.426 1118.05,565.073 1128.64,555.833L1131.3,558.227C1121.11,567.546 1109.86,576.071 1099.92,585.146L1097.17,583.89Z" style="fill:rgb(132,167,95);fill-rule:nonzero;"/>
        </g>
        <g transform="matrix(0.25,0,0,0.25,9,-14)">
            <path d="M1122.17,286.377C1123.84,287.254 1123.48,287.181 1124.86,288.622C1125.24,295.177 1119.32,305.991 1116.3,312.228C1115.02,311.105 1113.47,310.222 1113.32,308.811C1112.74,303.538 1119.67,290.815 1122.17,286.377Z" style="fill:rgb(177,233,70);fill-rule:nonzero;"/>
        </g>
        <g transform="matrix(0.25,0,0,0.25,9,-14)">
            <path d="M899.391,1119.24C901.173,1119.86 902.846,1119.99 903.319,1121.34C905.659,1128.04 904.363,1141.05 902.17,1147.28C899.95,1147.08 900.918,1147.45 899.327,1145.92C898.217,1138.37 899.034,1127 899.391,1119.24Z" style="fill:rgb(11,33,10);fill-rule:nonzero;"/>
        </g>
        <g transform="matrix(0.25,0,0,0.25,9,-14)">
            <path d="M859.112,1115.32C859.902,1115.64 861.213,1116.48 862,1116.95C863.569,1122.92 860.903,1137.52 856.474,1141.77L854.078,1141.11C853.009,1138 857.828,1119.76 859.112,1115.32Z" style="fill:rgb(11,33,10);fill-rule:nonzero;"/>
        </g>
        <g transform="matrix(0.25,0,0,0.25,9,-14)">
            <path d="M739.217,1077.55C746.305,1083.41 736.731,1096.57 733.789,1103.58L731.726,1101.56C730.368,1096.12 736.866,1085.51 739.217,1077.55Z" style="fill:rgb(10,18,10);fill-rule:nonzero;"/>
        </g>
        <g transform="matrix(0.25,0,0,0.25,9,-14)">
            <path d="M780.157,1095.16L782.38,1096.08C783.641,1098.98 780.694,1106.96 779.664,1110.09C777.797,1115.77 778.054,1116.75 772.924,1119.42C771.239,1118.21 771.801,1118.71 770.611,1116.95C772.9,1110.15 777.183,1103.65 780.157,1095.16Z" style="fill:rgb(10,18,10);fill-rule:nonzero;"/>
        </g>
        <g transform="matrix(0.25,0,0,0.25,9,-14)">
            <path d="M584.103,381.681C591.475,373.82 599.119,364.747 606.934,357.574L608.329,361.614C602.119,367.688 591.214,377.813 585.919,384.056L584.103,381.681Z" style="fill:rgb(132,167,95);fill-rule:nonzero;"/>
        </g>
        <g transform="matrix(0.25,0,0,0.25,9,-14)">
            <path d="M839.302,1112.32L841.402,1113.72C843.317,1120.44 840.484,1132.26 837.314,1138.17L834.874,1136.34C834.253,1130.1 837.588,1118.72 839.302,1112.32Z" style="fill:rgb(11,33,10);fill-rule:nonzero;"/>
        </g>
        <g transform="matrix(0.25,0,0,0.25,9,-14)">
            <path d="M609.277,1146.88C613.901,1143.25 612.779,1139.16 616.543,1137C620.609,1137.12 618.741,1136.6 622.315,1138.77C624.013,1141.74 623.843,1140.23 623.01,1143.41C621.731,1144.72 618.347,1148.01 617.375,1149.33C614.365,1148.22 612.391,1147.68 609.277,1146.88Z" style="fill:rgb(12,51,6);fill-rule:nonzero;"/>
        </g>
        <g transform="matrix(0.25,0,0,0.25,9,-14)">
            <path d="M1287.76,407.888C1281.73,416.227 1271.22,427.295 1263.85,434.631L1260.58,431.922C1268.88,423.973 1278.74,415.046 1287.76,407.888Z" style="fill:rgb(132,167,95);fill-rule:nonzero;"/>
        </g>
        <g transform="matrix(0.25,0,0,0.25,9,-14)">
            <path d="M876.153,1117.61C880.488,1121.41 876.891,1138.99 873.127,1143.04C872.172,1142.02 872.099,1141.66 871.391,1140.43C871.902,1134.27 873.628,1123.13 876.153,1117.61Z" style="fill:rgb(10,18,10);fill-rule:nonzero;"/>
        </g>
        <g transform="matrix(0.25,0,0,0.25,9,-14)">
            <path d="M803.542,1105.33C808.999,1107.67 804.199,1125.96 802.752,1130.61C797.034,1125.03 801.821,1112.83 803.542,1105.33Z" style="fill:rgb(10,18,10);fill-rule:nonzero;"/>
        </g>
        <g transform="matrix(0.25,0,0,0.25,9,-14)">
            <path d="M631.318,1164.93C637.824,1164.94 661.607,1180.72 666.434,1184.91C655.783,1182 640.313,1171.72 631.318,1164.93Z" style="fill:rgb(10,18,10);fill-rule:nonzero;"/>
        </g>
        <g transform="matrix(0.25,0,0,0.25,9,-14)">
            <path d="M1155.1,243.992C1161.77,244.582 1170.68,245.578 1169.38,253.837C1163.18,253.774 1155.35,251.106 1155.1,243.992Z" style="fill:rgb(132,167,95);fill-rule:nonzero;"/>
        </g>
        <g transform="matrix(0.25,0,0,0.25,9,-14)">
            <path d="M609.277,1146.88C612.391,1147.68 614.365,1148.22 617.375,1149.33C620.631,1152.77 621.802,1155.8 623.892,1160.03C618.599,1157.27 608.41,1153.46 609.277,1146.88Z" style="fill:rgb(53,68,44);fill-rule:nonzero;"/>
        </g>
        <g transform="matrix(0.25,0,0,0.25,9,-14)">
            <path d="M1099.92,585.146C1095.92,588.918 1082.01,601.129 1077.76,602.375C1081.75,597.522 1092.09,587.702 1097.17,583.89L1099.92,585.146Z" style="fill:rgb(53,68,44);fill-rule:nonzero;"/>
        </g>
        <g transform="matrix(0.25,0,0,0.25,9,-14)">
            <path d="M1377.06,762.889L1377.32,761.092C1382.24,764.123 1390.13,758.522 1396.2,764.414L1396.03,765.648C1390.5,767.386 1382.02,765.798 1377.06,762.889Z" style="fill:rgb(10,18,10);fill-rule:nonzero;"/>
        </g>
        <g transform="matrix(0.25,0,0,0.25,9,-14)">
            <path d="M601.013,1123.47C603.121,1124.92 606.992,1127.26 608.406,1129.18L608.133,1130.4L609.186,1130.25L609.217,1131.29L609.679,1132.02C602.637,1130.31 602.636,1127.15 598.591,1126.01L601.013,1123.47Z" style="fill:rgb(10,18,10);fill-rule:nonzero;"/>
        </g>
        <g transform="matrix(0.25,0,0,0.25,9,-14)">
            <path d="M584.103,381.681L585.919,384.056C580.626,390.469 575.104,395.088 568.488,400.017C573.732,393.939 578.938,387.827 584.103,381.681Z" style="fill:rgb(58,116,30);fill-rule:nonzero;"/>
        </g>
        <g transform="matrix(0.25,0,0,0.25,9,-14)">
            <path d="M646.834,966.685C652.13,970.155 656.065,972.435 660.459,977.023L657.783,978.363C652.885,973.818 650.906,971.918 646.834,966.685Z" style="fill:rgb(52,82,36);fill-rule:nonzero;"/>
        </g>
    </g>
    <g id="Layer1">
    </g>
    <g transform="matrix(1.079618,0,0,1.17508,-21.974589,-13.985669)">
        <g transform="matrix(3.594011,0,0,3.594011,99.893473,-1322.976176)">
            <g transform="matrix(12,0,0,12,106.276,396.028)">
            </g>
            <text x="49px" y="396.028px" style="font-family:'Ethnocentric-Regular', 'Ethnocentric', fantasy;font-size:12px;fill:rgb(242,242,243);">SC<tspan x="71.104px " y="396.028px ">O</tspan>RE</text>
        </g>
        <g transform="matrix(3.594011,0,0,3.594011,319.414916,-1323.976176)">
            <g transform="matrix(12,0,0,12,112.684,396.028)">
            </g>
            <text x="49px" y="396.028px" style="font-family:'Ethnocentric-Regular', 'Ethnocentric', fantasy;font-size:12px;fill:rgb(151,229,22);">MA<tspan x="74.368px 83.872px " y="396.028px 396.028px ">TR</tspan>IX</text>
        </g>
        <g transform="matrix(0.469426,0,0,0.424719,143.458129,23.71802)">
            <path d="M293,246L445,242L445,249L293,246Z" style="fill:rgb(151,229,22);"/>
        </g>
        <g transform="matrix(-0.469426,0,0,0.424719,865.218866,23.71802)">
            <path d="M293,246L445,242L445,249L293,246Z" style="fill:rgb(151,229,22);"/>
        </g>
        <g transform="matrix(0.746957,0,0,0.746957,356.995265,119.138259)">
            <g transform="matrix(26,0,0,26,378.612,17.524)">
            </g>
            <text x="0px" y="17.524px" style="font-family:'Kanit-Regular', 'Kanit';font-size:26px;fill:white;">ครบทุกสกอร์ เหมือนนั<tspan x="229.034px 228.54px " y="11.258px 17.524px ">่ง</tspan>อยู่ขอบสนาม</text>
        </g>
    </g>
    <defs>
        <linearGradient id="_Linear1" x1="0" y1="0" x2="1" y2="0" gradientUnits="userSpaceOnUse" gradientTransform="matrix(11.449,-279.746,279.746,11.449,505.757,935.899)"><stop offset="0" style="stop-color:rgb(163,172,179);stop-opacity:1"/><stop offset="1" style="stop-color:rgb(227,228,229);stop-opacity:1"/></linearGradient>
        <linearGradient id="_Linear2" x1="0" y1="0" x2="1" y2="0" gradientUnits="userSpaceOnUse" gradientTransform="matrix(18.17,-219.977,219.977,18.17,1094.07,837.935)"><stop offset="0" style="stop-color:rgb(82,185,0);stop-opacity:1"/><stop offset="1" style="stop-color:rgb(186,255,13);stop-opacity:1"/></linearGradient>
        <linearGradient id="_Linear3" x1="0" y1="0" x2="1" y2="0" gradientUnits="userSpaceOnUse" gradientTransform="matrix(18.62,-173.123,173.123,18.62,1184.38,1032.82)"><stop offset="0" style="stop-color:rgb(15,85,1);stop-opacity:1"/><stop offset="1" style="stop-color:rgb(61,159,2);stop-opacity:1"/></linearGradient>
        <linearGradient id="_Linear4" x1="0" y1="0" x2="1" y2="0" gradientUnits="userSpaceOnUse" gradientTransform="matrix(12.43,-106.972,106.972,12.43,1266.02,813.749)"><stop offset="0" style="stop-color:rgb(96,194,0);stop-opacity:1"/><stop offset="1" style="stop-color:rgb(153,240,19);stop-opacity:1"/></linearGradient>
        <linearGradient id="_Linear5" x1="0" y1="0" x2="1" y2="0" gradientUnits="userSpaceOnUse" gradientTransform="matrix(18.157,-147.295,147.295,18.157,843.779,930.246)"><stop offset="0" style="stop-color:rgb(31,116,1);stop-opacity:1"/><stop offset="1" style="stop-color:rgb(96,196,2);stop-opacity:1"/></linearGradient>
        <linearGradient id="_Linear6" x1="0" y1="0" x2="1" y2="0" gradientUnits="userSpaceOnUse" gradientTransform="matrix(11.41,-100.946,100.946,11.41,882.667,793.215)"><stop offset="0" style="stop-color:rgb(97,198,1);stop-opacity:1"/><stop offset="1" style="stop-color:rgb(153,245,12);stop-opacity:1"/></linearGradient>
        <linearGradient id="_Linear7" x1="0" y1="0" x2="1" y2="0" gradientUnits="userSpaceOnUse" gradientTransform="matrix(-19.583,72.88,-72.88,-19.583,868.471,1007.58)"><stop offset="0" style="stop-color:rgb(68,119,43);stop-opacity:1"/><stop offset="1" style="stop-color:rgb(129,190,73);stop-opacity:1"/></linearGradient>
        <linearGradient id="_Linear8" x1="0" y1="0" x2="1" y2="0" gradientUnits="userSpaceOnUse" gradientTransform="matrix(-34.99,-67.989,67.989,-34.99,1357.25,617.135)"><stop offset="0" style="stop-color:rgb(179,181,189);stop-opacity:1"/><stop offset="1" style="stop-color:rgb(244,242,242);stop-opacity:1"/></linearGradient>
        <linearGradient id="_Linear9" x1="0" y1="0" x2="1" y2="0" gradientUnits="userSpaceOnUse" gradientTransform="matrix(16.06,12.701,-12.701,16.06,1328.49,992.199)"><stop offset="0" style="stop-color:rgb(61,121,39);stop-opacity:1"/><stop offset="1" style="stop-color:rgb(83,166,47);stop-opacity:1"/></linearGradient>
    </defs>
</svg>
